<?xml version="1.0" encoding="utf-8" standalone="no"?>
<!DOCTYPE svg PUBLIC "-//W3C//DTD SVG 1.1//EN"
  "http://www.w3.org/Graphics/SVG/1.1/DTD/svg11.dtd">
<svg xmlns:xlink="http://www.w3.org/1999/xlink" width="576pt" height="432pt" viewBox="0 0 576 432" xmlns="http://www.w3.org/2000/svg" version="1.1">
 <metadata>
  <rdf:RDF xmlns:dc="http://purl.org/dc/elements/1.1/" xmlns:cc="http://creativecommons.org/ns#" xmlns:rdf="http://www.w3.org/1999/02/22-rdf-syntax-ns#">
   <cc:Work>
    <dc:type rdf:resource="http://purl.org/dc/dcmitype/StillImage"/>
    <dc:date>2024-11-07T17:22:51.285045</dc:date>
    <dc:format>image/svg+xml</dc:format>
    <dc:creator>
     <cc:Agent>
      <dc:title>Matplotlib v3.9.2, https://matplotlib.org/</dc:title>
     </cc:Agent>
    </dc:creator>
   </cc:Work>
  </rdf:RDF>
 </metadata>
 <defs>
  <style type="text/css">*{stroke-linejoin: round; stroke-linecap: butt}</style>
 </defs>
 <g id="figure_1">
  <g id="patch_1">
   <path d="M 0 432 
L 576 432 
L 576 0 
L 0 0 
z
" style="fill: #ffffff"/>
  </g>
  <g id="axes_1">
   <g id="patch_2">
    <path d="M 72 384.48 
L 518.4 384.48 
L 518.4 51.84 
L 72 51.84 
z
" style="fill: #ffffff"/>
   </g>
   <g id="matplotlib.axis_1">
    <g id="xtick_1">
     <g id="line2d_1">
      <defs>
       <path id="m41c88acdc3" d="M 0 0 
L 0 3.5 
" style="stroke: #000000; stroke-width: 0.8"/>
      </defs>
      <g>
       <use xlink:href="#m41c88acdc3" x="72" y="384.48" style="stroke: #000000; stroke-width: 0.8"/>
      </g>
     </g>
     <g id="text_1">
      <!-- 0 -->
      <g transform="translate(68.81875 399.078438) scale(0.1 -0.1)">
       <defs>
        <path id="DejaVuSans-30" d="M 2034 4250 
Q 1547 4250 1301 3770 
Q 1056 3291 1056 2328 
Q 1056 1369 1301 889 
Q 1547 409 2034 409 
Q 2525 409 2770 889 
Q 3016 1369 3016 2328 
Q 3016 3291 2770 3770 
Q 2525 4250 2034 4250 
z
M 2034 4750 
Q 2819 4750 3233 4129 
Q 3647 3509 3647 2328 
Q 3647 1150 3233 529 
Q 2819 -91 2034 -91 
Q 1250 -91 836 529 
Q 422 1150 422 2328 
Q 422 3509 836 4129 
Q 1250 4750 2034 4750 
z
" transform="scale(0.015625)"/>
       </defs>
       <use xlink:href="#DejaVuSans-30"/>
      </g>
     </g>
    </g>
    <g id="xtick_2">
     <g id="line2d_2">
      <g>
       <use xlink:href="#m41c88acdc3" x="161.28" y="384.48" style="stroke: #000000; stroke-width: 0.8"/>
      </g>
     </g>
     <g id="text_2">
      <!-- 20 -->
      <g transform="translate(154.9175 399.078438) scale(0.1 -0.1)">
       <defs>
        <path id="DejaVuSans-32" d="M 1228 531 
L 3431 531 
L 3431 0 
L 469 0 
L 469 531 
Q 828 903 1448 1529 
Q 2069 2156 2228 2338 
Q 2531 2678 2651 2914 
Q 2772 3150 2772 3378 
Q 2772 3750 2511 3984 
Q 2250 4219 1831 4219 
Q 1534 4219 1204 4116 
Q 875 4013 500 3803 
L 500 4441 
Q 881 4594 1212 4672 
Q 1544 4750 1819 4750 
Q 2544 4750 2975 4387 
Q 3406 4025 3406 3419 
Q 3406 3131 3298 2873 
Q 3191 2616 2906 2266 
Q 2828 2175 2409 1742 
Q 1991 1309 1228 531 
z
" transform="scale(0.015625)"/>
       </defs>
       <use xlink:href="#DejaVuSans-32"/>
       <use xlink:href="#DejaVuSans-30" x="63.623047"/>
      </g>
     </g>
    </g>
    <g id="xtick_3">
     <g id="line2d_3">
      <g>
       <use xlink:href="#m41c88acdc3" x="250.56" y="384.48" style="stroke: #000000; stroke-width: 0.8"/>
      </g>
     </g>
     <g id="text_3">
      <!-- 40 -->
      <g transform="translate(244.1975 399.078438) scale(0.1 -0.1)">
       <defs>
        <path id="DejaVuSans-34" d="M 2419 4116 
L 825 1625 
L 2419 1625 
L 2419 4116 
z
M 2253 4666 
L 3047 4666 
L 3047 1625 
L 3713 1625 
L 3713 1100 
L 3047 1100 
L 3047 0 
L 2419 0 
L 2419 1100 
L 313 1100 
L 313 1709 
L 2253 4666 
z
" transform="scale(0.015625)"/>
       </defs>
       <use xlink:href="#DejaVuSans-34"/>
       <use xlink:href="#DejaVuSans-30" x="63.623047"/>
      </g>
     </g>
    </g>
    <g id="xtick_4">
     <g id="line2d_4">
      <g>
       <use xlink:href="#m41c88acdc3" x="339.84" y="384.48" style="stroke: #000000; stroke-width: 0.8"/>
      </g>
     </g>
     <g id="text_4">
      <!-- 60 -->
      <g transform="translate(333.4775 399.078438) scale(0.1 -0.1)">
       <defs>
        <path id="DejaVuSans-36" d="M 2113 2584 
Q 1688 2584 1439 2293 
Q 1191 2003 1191 1497 
Q 1191 994 1439 701 
Q 1688 409 2113 409 
Q 2538 409 2786 701 
Q 3034 994 3034 1497 
Q 3034 2003 2786 2293 
Q 2538 2584 2113 2584 
z
M 3366 4563 
L 3366 3988 
Q 3128 4100 2886 4159 
Q 2644 4219 2406 4219 
Q 1781 4219 1451 3797 
Q 1122 3375 1075 2522 
Q 1259 2794 1537 2939 
Q 1816 3084 2150 3084 
Q 2853 3084 3261 2657 
Q 3669 2231 3669 1497 
Q 3669 778 3244 343 
Q 2819 -91 2113 -91 
Q 1303 -91 875 529 
Q 447 1150 447 2328 
Q 447 3434 972 4092 
Q 1497 4750 2381 4750 
Q 2619 4750 2861 4703 
Q 3103 4656 3366 4563 
z
" transform="scale(0.015625)"/>
       </defs>
       <use xlink:href="#DejaVuSans-36"/>
       <use xlink:href="#DejaVuSans-30" x="63.623047"/>
      </g>
     </g>
    </g>
    <g id="xtick_5">
     <g id="line2d_5">
      <g>
       <use xlink:href="#m41c88acdc3" x="429.12" y="384.48" style="stroke: #000000; stroke-width: 0.8"/>
      </g>
     </g>
     <g id="text_5">
      <!-- 80 -->
      <g transform="translate(422.7575 399.078438) scale(0.1 -0.1)">
       <defs>
        <path id="DejaVuSans-38" d="M 2034 2216 
Q 1584 2216 1326 1975 
Q 1069 1734 1069 1313 
Q 1069 891 1326 650 
Q 1584 409 2034 409 
Q 2484 409 2743 651 
Q 3003 894 3003 1313 
Q 3003 1734 2745 1975 
Q 2488 2216 2034 2216 
z
M 1403 2484 
Q 997 2584 770 2862 
Q 544 3141 544 3541 
Q 544 4100 942 4425 
Q 1341 4750 2034 4750 
Q 2731 4750 3128 4425 
Q 3525 4100 3525 3541 
Q 3525 3141 3298 2862 
Q 3072 2584 2669 2484 
Q 3125 2378 3379 2068 
Q 3634 1759 3634 1313 
Q 3634 634 3220 271 
Q 2806 -91 2034 -91 
Q 1263 -91 848 271 
Q 434 634 434 1313 
Q 434 1759 690 2068 
Q 947 2378 1403 2484 
z
M 1172 3481 
Q 1172 3119 1398 2916 
Q 1625 2713 2034 2713 
Q 2441 2713 2670 2916 
Q 2900 3119 2900 3481 
Q 2900 3844 2670 4047 
Q 2441 4250 2034 4250 
Q 1625 4250 1398 4047 
Q 1172 3844 1172 3481 
z
" transform="scale(0.015625)"/>
       </defs>
       <use xlink:href="#DejaVuSans-38"/>
       <use xlink:href="#DejaVuSans-30" x="63.623047"/>
      </g>
     </g>
    </g>
    <g id="xtick_6">
     <g id="line2d_6">
      <g>
       <use xlink:href="#m41c88acdc3" x="518.4" y="384.48" style="stroke: #000000; stroke-width: 0.8"/>
      </g>
     </g>
     <g id="text_6">
      <!-- 100 -->
      <g transform="translate(508.85625 399.078438) scale(0.1 -0.1)">
       <defs>
        <path id="DejaVuSans-31" d="M 794 531 
L 1825 531 
L 1825 4091 
L 703 3866 
L 703 4441 
L 1819 4666 
L 2450 4666 
L 2450 531 
L 3481 531 
L 3481 0 
L 794 0 
L 794 531 
z
" transform="scale(0.015625)"/>
       </defs>
       <use xlink:href="#DejaVuSans-31"/>
       <use xlink:href="#DejaVuSans-30" x="63.623047"/>
       <use xlink:href="#DejaVuSans-30" x="127.246094"/>
      </g>
     </g>
    </g>
    <g id="text_7">
     <!-- Epoch -->
     <g transform="translate(279.889062 412.756563) scale(0.1 -0.1)">
      <defs>
       <path id="DejaVuSans-45" d="M 628 4666 
L 3578 4666 
L 3578 4134 
L 1259 4134 
L 1259 2753 
L 3481 2753 
L 3481 2222 
L 1259 2222 
L 1259 531 
L 3634 531 
L 3634 0 
L 628 0 
L 628 4666 
z
" transform="scale(0.015625)"/>
       <path id="DejaVuSans-70" d="M 1159 525 
L 1159 -1331 
L 581 -1331 
L 581 3500 
L 1159 3500 
L 1159 2969 
Q 1341 3281 1617 3432 
Q 1894 3584 2278 3584 
Q 2916 3584 3314 3078 
Q 3713 2572 3713 1747 
Q 3713 922 3314 415 
Q 2916 -91 2278 -91 
Q 1894 -91 1617 61 
Q 1341 213 1159 525 
z
M 3116 1747 
Q 3116 2381 2855 2742 
Q 2594 3103 2138 3103 
Q 1681 3103 1420 2742 
Q 1159 2381 1159 1747 
Q 1159 1113 1420 752 
Q 1681 391 2138 391 
Q 2594 391 2855 752 
Q 3116 1113 3116 1747 
z
" transform="scale(0.015625)"/>
       <path id="DejaVuSans-6f" d="M 1959 3097 
Q 1497 3097 1228 2736 
Q 959 2375 959 1747 
Q 959 1119 1226 758 
Q 1494 397 1959 397 
Q 2419 397 2687 759 
Q 2956 1122 2956 1747 
Q 2956 2369 2687 2733 
Q 2419 3097 1959 3097 
z
M 1959 3584 
Q 2709 3584 3137 3096 
Q 3566 2609 3566 1747 
Q 3566 888 3137 398 
Q 2709 -91 1959 -91 
Q 1206 -91 779 398 
Q 353 888 353 1747 
Q 353 2609 779 3096 
Q 1206 3584 1959 3584 
z
" transform="scale(0.015625)"/>
       <path id="DejaVuSans-63" d="M 3122 3366 
L 3122 2828 
Q 2878 2963 2633 3030 
Q 2388 3097 2138 3097 
Q 1578 3097 1268 2742 
Q 959 2388 959 1747 
Q 959 1106 1268 751 
Q 1578 397 2138 397 
Q 2388 397 2633 464 
Q 2878 531 3122 666 
L 3122 134 
Q 2881 22 2623 -34 
Q 2366 -91 2075 -91 
Q 1284 -91 818 406 
Q 353 903 353 1747 
Q 353 2603 823 3093 
Q 1294 3584 2113 3584 
Q 2378 3584 2631 3529 
Q 2884 3475 3122 3366 
z
" transform="scale(0.015625)"/>
       <path id="DejaVuSans-68" d="M 3513 2113 
L 3513 0 
L 2938 0 
L 2938 2094 
Q 2938 2591 2744 2837 
Q 2550 3084 2163 3084 
Q 1697 3084 1428 2787 
Q 1159 2491 1159 1978 
L 1159 0 
L 581 0 
L 581 4863 
L 1159 4863 
L 1159 2956 
Q 1366 3272 1645 3428 
Q 1925 3584 2291 3584 
Q 2894 3584 3203 3211 
Q 3513 2838 3513 2113 
z
" transform="scale(0.015625)"/>
      </defs>
      <use xlink:href="#DejaVuSans-45"/>
      <use xlink:href="#DejaVuSans-70" x="63.183594"/>
      <use xlink:href="#DejaVuSans-6f" x="126.660156"/>
      <use xlink:href="#DejaVuSans-63" x="187.841797"/>
      <use xlink:href="#DejaVuSans-68" x="242.822266"/>
     </g>
    </g>
   </g>
   <g id="matplotlib.axis_2">
    <g id="ytick_1">
     <g id="line2d_7">
      <defs>
       <path id="m3c747fa9b8" d="M 0 0 
L -3.5 0 
" style="stroke: #000000; stroke-width: 0.8"/>
      </defs>
      <g>
       <use xlink:href="#m3c747fa9b8" x="72" y="384.48" style="stroke: #000000; stroke-width: 0.8"/>
      </g>
     </g>
     <g id="text_8">
      <!-- 0 -->
      <g transform="translate(58.6375 388.279219) scale(0.1 -0.1)">
       <use xlink:href="#DejaVuSans-30"/>
      </g>
     </g>
    </g>
    <g id="ytick_2">
     <g id="line2d_8">
      <g>
       <use xlink:href="#m3c747fa9b8" x="72" y="317.952" style="stroke: #000000; stroke-width: 0.8"/>
      </g>
     </g>
     <g id="text_9">
      <!-- 20 -->
      <g transform="translate(52.275 321.751219) scale(0.1 -0.1)">
       <use xlink:href="#DejaVuSans-32"/>
       <use xlink:href="#DejaVuSans-30" x="63.623047"/>
      </g>
     </g>
    </g>
    <g id="ytick_3">
     <g id="line2d_9">
      <g>
       <use xlink:href="#m3c747fa9b8" x="72" y="251.424" style="stroke: #000000; stroke-width: 0.8"/>
      </g>
     </g>
     <g id="text_10">
      <!-- 40 -->
      <g transform="translate(52.275 255.223219) scale(0.1 -0.1)">
       <use xlink:href="#DejaVuSans-34"/>
       <use xlink:href="#DejaVuSans-30" x="63.623047"/>
      </g>
     </g>
    </g>
    <g id="ytick_4">
     <g id="line2d_10">
      <g>
       <use xlink:href="#m3c747fa9b8" x="72" y="184.896" style="stroke: #000000; stroke-width: 0.8"/>
      </g>
     </g>
     <g id="text_11">
      <!-- 60 -->
      <g transform="translate(52.275 188.695219) scale(0.1 -0.1)">
       <use xlink:href="#DejaVuSans-36"/>
       <use xlink:href="#DejaVuSans-30" x="63.623047"/>
      </g>
     </g>
    </g>
    <g id="ytick_5">
     <g id="line2d_11">
      <g>
       <use xlink:href="#m3c747fa9b8" x="72" y="118.368" style="stroke: #000000; stroke-width: 0.8"/>
      </g>
     </g>
     <g id="text_12">
      <!-- 80 -->
      <g transform="translate(52.275 122.167219) scale(0.1 -0.1)">
       <use xlink:href="#DejaVuSans-38"/>
       <use xlink:href="#DejaVuSans-30" x="63.623047"/>
      </g>
     </g>
    </g>
    <g id="ytick_6">
     <g id="line2d_12">
      <g>
       <use xlink:href="#m3c747fa9b8" x="72" y="51.84" style="stroke: #000000; stroke-width: 0.8"/>
      </g>
     </g>
     <g id="text_13">
      <!-- 100 -->
      <g transform="translate(45.9125 55.639219) scale(0.1 -0.1)">
       <use xlink:href="#DejaVuSans-31"/>
       <use xlink:href="#DejaVuSans-30" x="63.623047"/>
       <use xlink:href="#DejaVuSans-30" x="127.246094"/>
      </g>
     </g>
    </g>
    <g id="text_14">
     <!-- Average Loss -->
     <g transform="translate(39.832812 251.249062) rotate(-90) scale(0.1 -0.1)">
      <defs>
       <path id="DejaVuSans-41" d="M 2188 4044 
L 1331 1722 
L 3047 1722 
L 2188 4044 
z
M 1831 4666 
L 2547 4666 
L 4325 0 
L 3669 0 
L 3244 1197 
L 1141 1197 
L 716 0 
L 50 0 
L 1831 4666 
z
" transform="scale(0.015625)"/>
       <path id="DejaVuSans-76" d="M 191 3500 
L 800 3500 
L 1894 563 
L 2988 3500 
L 3597 3500 
L 2284 0 
L 1503 0 
L 191 3500 
z
" transform="scale(0.015625)"/>
       <path id="DejaVuSans-65" d="M 3597 1894 
L 3597 1613 
L 953 1613 
Q 991 1019 1311 708 
Q 1631 397 2203 397 
Q 2534 397 2845 478 
Q 3156 559 3463 722 
L 3463 178 
Q 3153 47 2828 -22 
Q 2503 -91 2169 -91 
Q 1331 -91 842 396 
Q 353 884 353 1716 
Q 353 2575 817 3079 
Q 1281 3584 2069 3584 
Q 2775 3584 3186 3129 
Q 3597 2675 3597 1894 
z
M 3022 2063 
Q 3016 2534 2758 2815 
Q 2500 3097 2075 3097 
Q 1594 3097 1305 2825 
Q 1016 2553 972 2059 
L 3022 2063 
z
" transform="scale(0.015625)"/>
       <path id="DejaVuSans-72" d="M 2631 2963 
Q 2534 3019 2420 3045 
Q 2306 3072 2169 3072 
Q 1681 3072 1420 2755 
Q 1159 2438 1159 1844 
L 1159 0 
L 581 0 
L 581 3500 
L 1159 3500 
L 1159 2956 
Q 1341 3275 1631 3429 
Q 1922 3584 2338 3584 
Q 2397 3584 2469 3576 
Q 2541 3569 2628 3553 
L 2631 2963 
z
" transform="scale(0.015625)"/>
       <path id="DejaVuSans-61" d="M 2194 1759 
Q 1497 1759 1228 1600 
Q 959 1441 959 1056 
Q 959 750 1161 570 
Q 1363 391 1709 391 
Q 2188 391 2477 730 
Q 2766 1069 2766 1631 
L 2766 1759 
L 2194 1759 
z
M 3341 1997 
L 3341 0 
L 2766 0 
L 2766 531 
Q 2569 213 2275 61 
Q 1981 -91 1556 -91 
Q 1019 -91 701 211 
Q 384 513 384 1019 
Q 384 1609 779 1909 
Q 1175 2209 1959 2209 
L 2766 2209 
L 2766 2266 
Q 2766 2663 2505 2880 
Q 2244 3097 1772 3097 
Q 1472 3097 1187 3025 
Q 903 2953 641 2809 
L 641 3341 
Q 956 3463 1253 3523 
Q 1550 3584 1831 3584 
Q 2591 3584 2966 3190 
Q 3341 2797 3341 1997 
z
" transform="scale(0.015625)"/>
       <path id="DejaVuSans-67" d="M 2906 1791 
Q 2906 2416 2648 2759 
Q 2391 3103 1925 3103 
Q 1463 3103 1205 2759 
Q 947 2416 947 1791 
Q 947 1169 1205 825 
Q 1463 481 1925 481 
Q 2391 481 2648 825 
Q 2906 1169 2906 1791 
z
M 3481 434 
Q 3481 -459 3084 -895 
Q 2688 -1331 1869 -1331 
Q 1566 -1331 1297 -1286 
Q 1028 -1241 775 -1147 
L 775 -588 
Q 1028 -725 1275 -790 
Q 1522 -856 1778 -856 
Q 2344 -856 2625 -561 
Q 2906 -266 2906 331 
L 2906 616 
Q 2728 306 2450 153 
Q 2172 0 1784 0 
Q 1141 0 747 490 
Q 353 981 353 1791 
Q 353 2603 747 3093 
Q 1141 3584 1784 3584 
Q 2172 3584 2450 3431 
Q 2728 3278 2906 2969 
L 2906 3500 
L 3481 3500 
L 3481 434 
z
" transform="scale(0.015625)"/>
       <path id="DejaVuSans-20" transform="scale(0.015625)"/>
       <path id="DejaVuSans-4c" d="M 628 4666 
L 1259 4666 
L 1259 531 
L 3531 531 
L 3531 0 
L 628 0 
L 628 4666 
z
" transform="scale(0.015625)"/>
       <path id="DejaVuSans-73" d="M 2834 3397 
L 2834 2853 
Q 2591 2978 2328 3040 
Q 2066 3103 1784 3103 
Q 1356 3103 1142 2972 
Q 928 2841 928 2578 
Q 928 2378 1081 2264 
Q 1234 2150 1697 2047 
L 1894 2003 
Q 2506 1872 2764 1633 
Q 3022 1394 3022 966 
Q 3022 478 2636 193 
Q 2250 -91 1575 -91 
Q 1294 -91 989 -36 
Q 684 19 347 128 
L 347 722 
Q 666 556 975 473 
Q 1284 391 1588 391 
Q 1994 391 2212 530 
Q 2431 669 2431 922 
Q 2431 1156 2273 1281 
Q 2116 1406 1581 1522 
L 1381 1569 
Q 847 1681 609 1914 
Q 372 2147 372 2553 
Q 372 3047 722 3315 
Q 1072 3584 1716 3584 
Q 2034 3584 2315 3537 
Q 2597 3491 2834 3397 
z
" transform="scale(0.015625)"/>
      </defs>
      <use xlink:href="#DejaVuSans-41"/>
      <use xlink:href="#DejaVuSans-76" x="62.533203"/>
      <use xlink:href="#DejaVuSans-65" x="121.712891"/>
      <use xlink:href="#DejaVuSans-72" x="183.236328"/>
      <use xlink:href="#DejaVuSans-61" x="224.349609"/>
      <use xlink:href="#DejaVuSans-67" x="285.628906"/>
      <use xlink:href="#DejaVuSans-65" x="349.105469"/>
      <use xlink:href="#DejaVuSans-20" x="410.628906"/>
      <use xlink:href="#DejaVuSans-4c" x="442.416016"/>
      <use xlink:href="#DejaVuSans-6f" x="496.378906"/>
      <use xlink:href="#DejaVuSans-73" x="557.560547"/>
      <use xlink:href="#DejaVuSans-73" x="609.660156"/>
     </g>
    </g>
   </g>
   <g id="line2d_13">
    <path d="M 72 105.759682 
L 76.464 134.011089 
L 80.928 128.084231 
L 85.392 158.656949 
L 89.856 176.094379 
L 94.32 200.541988 
L 98.784 162.106163 
L 103.248 193.084943 
L 107.712 189.39317 
L 112.176 206.498416 
L 116.64 187.792627 
L 121.104 230.5421 
L 125.568 215.156355 
L 130.032 206.640495 
L 134.496 190.33761 
L 138.96 207.823375 
L 143.424 188.771546 
L 147.888 251.932647 
L 152.352 209.046851 
L 156.816 238.038534 
L 161.28 239.157947 
L 165.744 250.222507 
L 170.208 231.349491 
L 174.672 261.667915 
L 179.136 300.750453 
L 183.6 271.774028 
L 188.064 219.58429 
L 192.528 271.73829 
L 196.992 269.856713 
L 201.456 246.959068 
L 205.92 263.410821 
L 210.384 277.035506 
L 214.848 253.760003 
L 219.312 310.218257 
L 223.776 289.442936 
L 228.24 299.323028 
L 232.704 303.943923 
L 237.168 266.193706 
L 241.632 307.770247 
L 246.096 295.810458 
L 250.56 295.926617 
L 255.024 303.189702 
L 259.488 312.900112 
L 263.952 289.831252 
L 268.416 327.197092 
L 272.88 310.778374 
L 277.344 314.653298 
L 281.808 330.616936 
L 286.272 318.903409 
L 290.736 327.437645 
L 295.2 317.486873 
L 299.664 326.464231 
L 304.128 322.367647 
L 308.592 335.858361 
L 313.056 330.678709 
L 317.52 321.27651 
L 321.984 341.840157 
L 326.448 326.841968 
L 330.912 326.676004 
L 335.376 334.123155 
L 339.84 323.920739 
L 344.304 341.359185 
L 348.768 330.913927 
L 353.232 304.786717 
L 357.696 344.448865 
L 362.16 327.282915 
L 366.624 337.202548 
L 371.088 328.895812 
L 375.552 349.770442 
L 380.016 329.639452 
L 384.48 343.035763 
L 388.944 351.165588 
L 393.408 352.410868 
L 397.872 341.54183 
L 402.336 337.722671 
L 406.8 353.600382 
L 411.264 354.741395 
L 415.728 355.969282 
L 420.192 350.161634 
L 424.656 349.760505 
L 429.12 347.318082 
L 433.584 349.759421 
L 438.048 353.801982 
L 442.512 355.968192 
L 446.976 356.712248 
L 451.44 342.241308 
L 455.904 353.291209 
L 460.368 360.320095 
L 464.832 342.285954 
L 469.296 356.139575 
L 473.76 359.876826 
L 478.224 358.770774 
L 482.688 350.319356 
L 487.152 362.810781 
L 491.616 355.061231 
L 496.08 358.605541 
L 500.544 352.615037 
L 505.008 346.002722 
L 509.472 341.857823 
L 513.936 355.620134 
" style="fill: none; stroke: #1f77b4; stroke-width: 1.5; stroke-linecap: square"/>
    <defs>
     <path id="m9944db2b6a" d="M 0 3 
C 0.795609 3 1.55874 2.683901 2.12132 2.12132 
C 2.683901 1.55874 3 0.795609 3 0 
C 3 -0.795609 2.683901 -1.55874 2.12132 -2.12132 
C 1.55874 -2.683901 0.795609 -3 0 -3 
C -0.795609 -3 -1.55874 -2.683901 -2.12132 -2.12132 
C -2.683901 -1.55874 -3 -0.795609 -3 0 
C -3 0.795609 -2.683901 1.55874 -2.12132 2.12132 
C -1.55874 2.683901 -0.795609 3 0 3 
z
" style="stroke: #1f77b4"/>
    </defs>
    <g>
     <use xlink:href="#m9944db2b6a" x="72" y="105.759682" style="fill: #1f77b4; stroke: #1f77b4"/>
     <use xlink:href="#m9944db2b6a" x="76.464" y="134.011089" style="fill: #1f77b4; stroke: #1f77b4"/>
     <use xlink:href="#m9944db2b6a" x="80.928" y="128.084231" style="fill: #1f77b4; stroke: #1f77b4"/>
     <use xlink:href="#m9944db2b6a" x="85.392" y="158.656949" style="fill: #1f77b4; stroke: #1f77b4"/>
     <use xlink:href="#m9944db2b6a" x="89.856" y="176.094379" style="fill: #1f77b4; stroke: #1f77b4"/>
     <use xlink:href="#m9944db2b6a" x="94.32" y="200.541988" style="fill: #1f77b4; stroke: #1f77b4"/>
     <use xlink:href="#m9944db2b6a" x="98.784" y="162.106163" style="fill: #1f77b4; stroke: #1f77b4"/>
     <use xlink:href="#m9944db2b6a" x="103.248" y="193.084943" style="fill: #1f77b4; stroke: #1f77b4"/>
     <use xlink:href="#m9944db2b6a" x="107.712" y="189.39317" style="fill: #1f77b4; stroke: #1f77b4"/>
     <use xlink:href="#m9944db2b6a" x="112.176" y="206.498416" style="fill: #1f77b4; stroke: #1f77b4"/>
     <use xlink:href="#m9944db2b6a" x="116.64" y="187.792627" style="fill: #1f77b4; stroke: #1f77b4"/>
     <use xlink:href="#m9944db2b6a" x="121.104" y="230.5421" style="fill: #1f77b4; stroke: #1f77b4"/>
     <use xlink:href="#m9944db2b6a" x="125.568" y="215.156355" style="fill: #1f77b4; stroke: #1f77b4"/>
     <use xlink:href="#m9944db2b6a" x="130.032" y="206.640495" style="fill: #1f77b4; stroke: #1f77b4"/>
     <use xlink:href="#m9944db2b6a" x="134.496" y="190.33761" style="fill: #1f77b4; stroke: #1f77b4"/>
     <use xlink:href="#m9944db2b6a" x="138.96" y="207.823375" style="fill: #1f77b4; stroke: #1f77b4"/>
     <use xlink:href="#m9944db2b6a" x="143.424" y="188.771546" style="fill: #1f77b4; stroke: #1f77b4"/>
     <use xlink:href="#m9944db2b6a" x="147.888" y="251.932647" style="fill: #1f77b4; stroke: #1f77b4"/>
     <use xlink:href="#m9944db2b6a" x="152.352" y="209.046851" style="fill: #1f77b4; stroke: #1f77b4"/>
     <use xlink:href="#m9944db2b6a" x="156.816" y="238.038534" style="fill: #1f77b4; stroke: #1f77b4"/>
     <use xlink:href="#m9944db2b6a" x="161.28" y="239.157947" style="fill: #1f77b4; stroke: #1f77b4"/>
     <use xlink:href="#m9944db2b6a" x="165.744" y="250.222507" style="fill: #1f77b4; stroke: #1f77b4"/>
     <use xlink:href="#m9944db2b6a" x="170.208" y="231.349491" style="fill: #1f77b4; stroke: #1f77b4"/>
     <use xlink:href="#m9944db2b6a" x="174.672" y="261.667915" style="fill: #1f77b4; stroke: #1f77b4"/>
     <use xlink:href="#m9944db2b6a" x="179.136" y="300.750453" style="fill: #1f77b4; stroke: #1f77b4"/>
     <use xlink:href="#m9944db2b6a" x="183.6" y="271.774028" style="fill: #1f77b4; stroke: #1f77b4"/>
     <use xlink:href="#m9944db2b6a" x="188.064" y="219.58429" style="fill: #1f77b4; stroke: #1f77b4"/>
     <use xlink:href="#m9944db2b6a" x="192.528" y="271.73829" style="fill: #1f77b4; stroke: #1f77b4"/>
     <use xlink:href="#m9944db2b6a" x="196.992" y="269.856713" style="fill: #1f77b4; stroke: #1f77b4"/>
     <use xlink:href="#m9944db2b6a" x="201.456" y="246.959068" style="fill: #1f77b4; stroke: #1f77b4"/>
     <use xlink:href="#m9944db2b6a" x="205.92" y="263.410821" style="fill: #1f77b4; stroke: #1f77b4"/>
     <use xlink:href="#m9944db2b6a" x="210.384" y="277.035506" style="fill: #1f77b4; stroke: #1f77b4"/>
     <use xlink:href="#m9944db2b6a" x="214.848" y="253.760003" style="fill: #1f77b4; stroke: #1f77b4"/>
     <use xlink:href="#m9944db2b6a" x="219.312" y="310.218257" style="fill: #1f77b4; stroke: #1f77b4"/>
     <use xlink:href="#m9944db2b6a" x="223.776" y="289.442936" style="fill: #1f77b4; stroke: #1f77b4"/>
     <use xlink:href="#m9944db2b6a" x="228.24" y="299.323028" style="fill: #1f77b4; stroke: #1f77b4"/>
     <use xlink:href="#m9944db2b6a" x="232.704" y="303.943923" style="fill: #1f77b4; stroke: #1f77b4"/>
     <use xlink:href="#m9944db2b6a" x="237.168" y="266.193706" style="fill: #1f77b4; stroke: #1f77b4"/>
     <use xlink:href="#m9944db2b6a" x="241.632" y="307.770247" style="fill: #1f77b4; stroke: #1f77b4"/>
     <use xlink:href="#m9944db2b6a" x="246.096" y="295.810458" style="fill: #1f77b4; stroke: #1f77b4"/>
     <use xlink:href="#m9944db2b6a" x="250.56" y="295.926617" style="fill: #1f77b4; stroke: #1f77b4"/>
     <use xlink:href="#m9944db2b6a" x="255.024" y="303.189702" style="fill: #1f77b4; stroke: #1f77b4"/>
     <use xlink:href="#m9944db2b6a" x="259.488" y="312.900112" style="fill: #1f77b4; stroke: #1f77b4"/>
     <use xlink:href="#m9944db2b6a" x="263.952" y="289.831252" style="fill: #1f77b4; stroke: #1f77b4"/>
     <use xlink:href="#m9944db2b6a" x="268.416" y="327.197092" style="fill: #1f77b4; stroke: #1f77b4"/>
     <use xlink:href="#m9944db2b6a" x="272.88" y="310.778374" style="fill: #1f77b4; stroke: #1f77b4"/>
     <use xlink:href="#m9944db2b6a" x="277.344" y="314.653298" style="fill: #1f77b4; stroke: #1f77b4"/>
     <use xlink:href="#m9944db2b6a" x="281.808" y="330.616936" style="fill: #1f77b4; stroke: #1f77b4"/>
     <use xlink:href="#m9944db2b6a" x="286.272" y="318.903409" style="fill: #1f77b4; stroke: #1f77b4"/>
     <use xlink:href="#m9944db2b6a" x="290.736" y="327.437645" style="fill: #1f77b4; stroke: #1f77b4"/>
     <use xlink:href="#m9944db2b6a" x="295.2" y="317.486873" style="fill: #1f77b4; stroke: #1f77b4"/>
     <use xlink:href="#m9944db2b6a" x="299.664" y="326.464231" style="fill: #1f77b4; stroke: #1f77b4"/>
     <use xlink:href="#m9944db2b6a" x="304.128" y="322.367647" style="fill: #1f77b4; stroke: #1f77b4"/>
     <use xlink:href="#m9944db2b6a" x="308.592" y="335.858361" style="fill: #1f77b4; stroke: #1f77b4"/>
     <use xlink:href="#m9944db2b6a" x="313.056" y="330.678709" style="fill: #1f77b4; stroke: #1f77b4"/>
     <use xlink:href="#m9944db2b6a" x="317.52" y="321.27651" style="fill: #1f77b4; stroke: #1f77b4"/>
     <use xlink:href="#m9944db2b6a" x="321.984" y="341.840157" style="fill: #1f77b4; stroke: #1f77b4"/>
     <use xlink:href="#m9944db2b6a" x="326.448" y="326.841968" style="fill: #1f77b4; stroke: #1f77b4"/>
     <use xlink:href="#m9944db2b6a" x="330.912" y="326.676004" style="fill: #1f77b4; stroke: #1f77b4"/>
     <use xlink:href="#m9944db2b6a" x="335.376" y="334.123155" style="fill: #1f77b4; stroke: #1f77b4"/>
     <use xlink:href="#m9944db2b6a" x="339.84" y="323.920739" style="fill: #1f77b4; stroke: #1f77b4"/>
     <use xlink:href="#m9944db2b6a" x="344.304" y="341.359185" style="fill: #1f77b4; stroke: #1f77b4"/>
     <use xlink:href="#m9944db2b6a" x="348.768" y="330.913927" style="fill: #1f77b4; stroke: #1f77b4"/>
     <use xlink:href="#m9944db2b6a" x="353.232" y="304.786717" style="fill: #1f77b4; stroke: #1f77b4"/>
     <use xlink:href="#m9944db2b6a" x="357.696" y="344.448865" style="fill: #1f77b4; stroke: #1f77b4"/>
     <use xlink:href="#m9944db2b6a" x="362.16" y="327.282915" style="fill: #1f77b4; stroke: #1f77b4"/>
     <use xlink:href="#m9944db2b6a" x="366.624" y="337.202548" style="fill: #1f77b4; stroke: #1f77b4"/>
     <use xlink:href="#m9944db2b6a" x="371.088" y="328.895812" style="fill: #1f77b4; stroke: #1f77b4"/>
     <use xlink:href="#m9944db2b6a" x="375.552" y="349.770442" style="fill: #1f77b4; stroke: #1f77b4"/>
     <use xlink:href="#m9944db2b6a" x="380.016" y="329.639452" style="fill: #1f77b4; stroke: #1f77b4"/>
     <use xlink:href="#m9944db2b6a" x="384.48" y="343.035763" style="fill: #1f77b4; stroke: #1f77b4"/>
     <use xlink:href="#m9944db2b6a" x="388.944" y="351.165588" style="fill: #1f77b4; stroke: #1f77b4"/>
     <use xlink:href="#m9944db2b6a" x="393.408" y="352.410868" style="fill: #1f77b4; stroke: #1f77b4"/>
     <use xlink:href="#m9944db2b6a" x="397.872" y="341.54183" style="fill: #1f77b4; stroke: #1f77b4"/>
     <use xlink:href="#m9944db2b6a" x="402.336" y="337.722671" style="fill: #1f77b4; stroke: #1f77b4"/>
     <use xlink:href="#m9944db2b6a" x="406.8" y="353.600382" style="fill: #1f77b4; stroke: #1f77b4"/>
     <use xlink:href="#m9944db2b6a" x="411.264" y="354.741395" style="fill: #1f77b4; stroke: #1f77b4"/>
     <use xlink:href="#m9944db2b6a" x="415.728" y="355.969282" style="fill: #1f77b4; stroke: #1f77b4"/>
     <use xlink:href="#m9944db2b6a" x="420.192" y="350.161634" style="fill: #1f77b4; stroke: #1f77b4"/>
     <use xlink:href="#m9944db2b6a" x="424.656" y="349.760505" style="fill: #1f77b4; stroke: #1f77b4"/>
     <use xlink:href="#m9944db2b6a" x="429.12" y="347.318082" style="fill: #1f77b4; stroke: #1f77b4"/>
     <use xlink:href="#m9944db2b6a" x="433.584" y="349.759421" style="fill: #1f77b4; stroke: #1f77b4"/>
     <use xlink:href="#m9944db2b6a" x="438.048" y="353.801982" style="fill: #1f77b4; stroke: #1f77b4"/>
     <use xlink:href="#m9944db2b6a" x="442.512" y="355.968192" style="fill: #1f77b4; stroke: #1f77b4"/>
     <use xlink:href="#m9944db2b6a" x="446.976" y="356.712248" style="fill: #1f77b4; stroke: #1f77b4"/>
     <use xlink:href="#m9944db2b6a" x="451.44" y="342.241308" style="fill: #1f77b4; stroke: #1f77b4"/>
     <use xlink:href="#m9944db2b6a" x="455.904" y="353.291209" style="fill: #1f77b4; stroke: #1f77b4"/>
     <use xlink:href="#m9944db2b6a" x="460.368" y="360.320095" style="fill: #1f77b4; stroke: #1f77b4"/>
     <use xlink:href="#m9944db2b6a" x="464.832" y="342.285954" style="fill: #1f77b4; stroke: #1f77b4"/>
     <use xlink:href="#m9944db2b6a" x="469.296" y="356.139575" style="fill: #1f77b4; stroke: #1f77b4"/>
     <use xlink:href="#m9944db2b6a" x="473.76" y="359.876826" style="fill: #1f77b4; stroke: #1f77b4"/>
     <use xlink:href="#m9944db2b6a" x="478.224" y="358.770774" style="fill: #1f77b4; stroke: #1f77b4"/>
     <use xlink:href="#m9944db2b6a" x="482.688" y="350.319356" style="fill: #1f77b4; stroke: #1f77b4"/>
     <use xlink:href="#m9944db2b6a" x="487.152" y="362.810781" style="fill: #1f77b4; stroke: #1f77b4"/>
     <use xlink:href="#m9944db2b6a" x="491.616" y="355.061231" style="fill: #1f77b4; stroke: #1f77b4"/>
     <use xlink:href="#m9944db2b6a" x="496.08" y="358.605541" style="fill: #1f77b4; stroke: #1f77b4"/>
     <use xlink:href="#m9944db2b6a" x="500.544" y="352.615037" style="fill: #1f77b4; stroke: #1f77b4"/>
     <use xlink:href="#m9944db2b6a" x="505.008" y="346.002722" style="fill: #1f77b4; stroke: #1f77b4"/>
     <use xlink:href="#m9944db2b6a" x="509.472" y="341.857823" style="fill: #1f77b4; stroke: #1f77b4"/>
     <use xlink:href="#m9944db2b6a" x="513.936" y="355.620134" style="fill: #1f77b4; stroke: #1f77b4"/>
    </g>
   </g>
   <g id="patch_3">
    <path d="M 72 384.48 
L 72 51.84 
" style="fill: none; stroke: #000000; stroke-width: 0.8; stroke-linejoin: miter; stroke-linecap: square"/>
   </g>
   <g id="patch_4">
    <path d="M 518.4 384.48 
L 518.4 51.84 
" style="fill: none; stroke: #000000; stroke-width: 0.8; stroke-linejoin: miter; stroke-linecap: square"/>
   </g>
   <g id="patch_5">
    <path d="M 72 384.48 
L 518.4 384.48 
" style="fill: none; stroke: #000000; stroke-width: 0.8; stroke-linejoin: miter; stroke-linecap: square"/>
   </g>
   <g id="patch_6">
    <path d="M 72 51.84 
L 518.4 51.84 
" style="fill: none; stroke: #000000; stroke-width: 0.8; stroke-linejoin: miter; stroke-linecap: square"/>
   </g>
   <g id="text_15">
    <!-- Average Loss over Epochs -->
    <g transform="translate(216.799688 45.84) scale(0.12 -0.12)">
     <use xlink:href="#DejaVuSans-41"/>
     <use xlink:href="#DejaVuSans-76" x="62.533203"/>
     <use xlink:href="#DejaVuSans-65" x="121.712891"/>
     <use xlink:href="#DejaVuSans-72" x="183.236328"/>
     <use xlink:href="#DejaVuSans-61" x="224.349609"/>
     <use xlink:href="#DejaVuSans-67" x="285.628906"/>
     <use xlink:href="#DejaVuSans-65" x="349.105469"/>
     <use xlink:href="#DejaVuSans-20" x="410.628906"/>
     <use xlink:href="#DejaVuSans-4c" x="442.416016"/>
     <use xlink:href="#DejaVuSans-6f" x="496.378906"/>
     <use xlink:href="#DejaVuSans-73" x="557.560547"/>
     <use xlink:href="#DejaVuSans-73" x="609.660156"/>
     <use xlink:href="#DejaVuSans-20" x="661.759766"/>
     <use xlink:href="#DejaVuSans-6f" x="693.546875"/>
     <use xlink:href="#DejaVuSans-76" x="754.728516"/>
     <use xlink:href="#DejaVuSans-65" x="813.908203"/>
     <use xlink:href="#DejaVuSans-72" x="875.431641"/>
     <use xlink:href="#DejaVuSans-20" x="916.544922"/>
     <use xlink:href="#DejaVuSans-45" x="948.332031"/>
     <use xlink:href="#DejaVuSans-70" x="1011.515625"/>
     <use xlink:href="#DejaVuSans-6f" x="1074.992188"/>
     <use xlink:href="#DejaVuSans-63" x="1136.173828"/>
     <use xlink:href="#DejaVuSans-68" x="1191.154297"/>
     <use xlink:href="#DejaVuSans-73" x="1254.533203"/>
    </g>
   </g>
  </g>
 </g>
</svg>
